<svg xmlns="http://www.w3.org/2000/svg" width="14" height="14" fill="none" viewBox="0 0 14 14">
    <circle cx="7" cy="7" r="7" fill="#fff"/>
    <path fill="#FF8447" d="M7 0a7 7 0 1 0 0 14A7 7 0 0 0 7 0zm0 12.688A5.687 5.687 0 1 1 7 1.313a5.687 5.687 0 0 1 0 11.374zm2.751-8.666a.61.61 0 0 0-.849.237L6.555 8.475 5.248 6.884c-.237-.273-.551-.414-.848-.237-.298.178-.42.607-.228.882L5.99 9.743c.136.176.291.282.453.313l.002.002.016.001c.037.006.587.107.823-.316l2.694-4.84a.66.66 0 0 0-.228-.88z"/>
</svg>
