<svg xmlns="http://www.w3.org/2000/svg" width="30" height="30" fill="none" viewBox="0 0 30 30">
    <mask id="a" width="30" height="30" x="0" y="0" maskUnits="userSpaceOnUse">
        <path fill="#C4C4C4" d="M0 0h30v30H0z"/>
    </mask>
    <g fill="#fff" mask="url(#a)">
        <path d="M25.607 4.394A14.902 14.902 0 0 0 15 0C10.993 0 7.227 1.56 4.394 4.394A14.902 14.902 0 0 0 0 15c0 4.007 1.56 7.774 4.394 10.607A14.902 14.902 0 0 0 15 30c4.007 0 7.774-1.56 10.607-4.393A14.902 14.902 0 0 0 30 15c0-4.007-1.56-7.773-4.393-10.606zm-.663 20.55A13.97 13.97 0 0 1 15 29.062a13.97 13.97 0 0 1-9.943-4.118A13.97 13.97 0 0 1 .937 15a13.97 13.97 0 0 1 4.12-9.943A13.97 13.97 0 0 1 15 .937a13.97 13.97 0 0 1 9.944 4.12A13.97 13.97 0 0 1 29.062 15a13.97 13.97 0 0 1-4.118 9.944z"/>
        <path d="M25.198 6.737a.469.469 0 1 0-.729.59A12.214 12.214 0 0 1 27.187 15c0 3.256-1.267 6.317-3.57 8.618A12.108 12.108 0 0 1 15 27.188c-3.004 0-5.89-1.102-8.125-3.103a.469.469 0 0 0-.625.698A13.102 13.102 0 0 0 15 28.125c3.506 0 6.802-1.365 9.28-3.844A13.04 13.04 0 0 0 28.126 15c0-3.002-1.04-5.937-2.927-8.263zM2.812 15C2.812 8.28 8.28 2.812 15 2.812c3.003 0 5.889 1.102 8.125 3.103a.469.469 0 1 0 .625-.698A13.102 13.102 0 0 0 15 1.875 13.039 13.039 0 0 0 5.72 5.72 13.038 13.038 0 0 0 1.874 15c0 3.002 1.04 5.937 2.927 8.264a.467.467 0 0 0 .66.068.469.469 0 0 0 .069-.659A12.213 12.213 0 0 1 2.812 15z"/>
        <path d="M18.669 8H11.36A3.364 3.364 0 0 0 8 11.36v7.309a3.364 3.364 0 0 0 3.36 3.36h7.309a3.364 3.364 0 0 0 3.36-3.36V11.36A3.364 3.364 0 0 0 18.67 8zm2.475 10.669a2.479 2.479 0 0 1-2.475 2.475H11.36a2.478 2.478 0 0 1-2.475-2.475V11.36a2.478 2.478 0 0 1 2.476-2.476h7.308a2.478 2.478 0 0 1 2.475 2.476v7.308z"/>
        <path d="M18.936 10.564a.54.54 0 1 0 0 1.079.54.54 0 0 0 0-1.079zM15.015 11.576a3.442 3.442 0 0 0-3.439 3.438 3.442 3.442 0 0 0 3.439 3.44 3.443 3.443 0 0 0 3.438-3.44 3.442 3.442 0 0 0-3.438-3.438zm0 5.992a2.557 2.557 0 0 1-2.554-2.554 2.556 2.556 0 0 1 2.554-2.553 2.556 2.556 0 0 1 2.553 2.553 2.557 2.557 0 0 1-2.553 2.555z"/>
    </g>
</svg>
