<svg xmlns="http://www.w3.org/2000/svg" width="21" height="23" fill="none" viewBox="0 0 21 23">
    <path fill="#FF8447" d="M14.063 3.172c0 1.749-1.405 3.17-3.135 3.17-1.732 0-3.136-1.421-3.136-3.17C7.792 1.422 9.197 0 10.928 0c1.73 0 3.135 1.421 3.135 3.172zM10.93 19.464a1.758 1.758 0 0 0-1.75 1.764A1.755 1.755 0 0 0 10.922 23a1.754 1.754 0 0 0 1.752-1.762 1.757 1.757 0 0 0-1.744-1.774zM21 12.202c0-.637-.51-1.154-1.142-1.154-.631 0-1.143.515-1.143 1.154 0 .636.51 1.155 1.143 1.155A1.15 1.15 0 0 0 21 12.202zm-17.009 0a2.007 2.007 0 0 0-1.996-2.018A2.006 2.006 0 0 0 0 12.202c0 1.114.892 2.017 1.995 2.017a2.007 2.007 0 0 0 1.996-2.017zm13.887-7.03a.89.89 0 0 0-1.27 0 .92.92 0 0 0 0 1.288.888.888 0 0 0 1.27 0 .92.92 0 0 0 0-1.289zM6.062 17.124a2.043 2.043 0 0 0-2.9 0 2.081 2.081 0 0 0 0 2.924 2.036 2.036 0 0 0 2.899 0 2.078 2.078 0 0 0 .001-2.924zM18.08 19.43a1.204 1.204 0 0 0-.002-1.685 1.162 1.162 0 0 0-1.658.003 1.205 1.205 0 0 0 0 1.684c.46.463 1.2.463 1.66-.002zM6.114 7.332a2.164 2.164 0 0 0 0-3.031 2.1 2.1 0 0 0-2.994 0 2.163 2.163 0 0 0 0 3.031 2.097 2.097 0 0 0 2.994 0z"/>
</svg>
