<svg xmlns="http://www.w3.org/2000/svg" width="87" height="88" fill="none" viewBox="0 0 87 88">
    <path fill="#fff" d="M86.88 46.837a1.554 1.554 0 0 0-1.434-1.668 1.554 1.554 0 0 0-1.67 1.43c-.702 9.194-4.592 17.952-10.952 24.663-7.427 7.837-17.466 12.318-28.266 12.615-10.8.298-21.07-3.624-28.919-11.04A40.297 40.297 0 0 1 3.131 46.859a1.555 1.555 0 0 0-3.101.257A43.4 43.4 0 0 0 13.5 75.094c8.452 7.986 19.513 12.21 31.144 11.889 11.63-.32 22.442-5.145 30.44-13.585 6.85-7.227 11.038-16.66 11.795-26.561zM64.314 40.945A2.06 2.06 0 0 0 62.254 43a2.06 2.06 0 0 0 4.118 0 2.06 2.06 0 0 0-2.058-2.056z"/>
    <path fill="#fff" d="M14.06 15.735C29.39-.442 55.045-1.149 71.246 14.16a40.297 40.297 0 0 1 12.508 25.978 1.555 1.555 0 0 0 3.1-.257 43.398 43.398 0 0 0-13.47-27.977C64.934 3.918 53.873-.304 42.24.017 30.608.337 19.798 5.16 11.8 13.6 4.95 20.827.762 30.26.005 40.162c-.038.486.153.937.482 1.247a1.555 1.555 0 0 0 2.62-1.01C3.81 31.205 7.7 22.446 14.06 15.735z"/>
    <path fill="#fff" d="M60.993 19.108c-.026-.19-.111-.453-.255-.788-.117-.371-.318-.537-.603-.497-.413.057-1.132.463-2.158 1.22-1 .72-2.192 1.676-3.579 2.87a177.301 177.301 0 0 0-4.39 4 303.258 303.258 0 0 0-4.57 4.46 1280.848 1280.848 0 0 1-3.178 3.3 1005.25 1005.25 0 0 0-2.873 3.062 82.185 82.185 0 0 0-2.354 2.603c-.7.776-1.273 1.42-1.72 1.934-.915.16-1.73.338-2.447.534-.69.16-1.471.35-2.346.568-.377.084-1.061.276-2.055.575-.965.264-2.067.594-3.306.992a77.839 77.839 0 0 0-3.898 1.268c-1.329.443-2.54.918-3.633 1.425-1.099.475-2 .971-2.704 1.489-.676.481-.986.928-.929 1.34.049.348.297.62.745.817.479.191.893.263 1.242.215.317-.044.733-.199 1.245-.464.545-.27 1.101-.572 1.668-.91.6-.34 1.167-.678 1.703-1.01.536-.333.97-.587 1.3-.762.94-.454 1.975-.92 3.104-1.4a60.267 60.267 0 0 1 3.362-1.29 60.851 60.851 0 0 1 3.055-1.054c.961-.295 1.727-.482 2.298-.561a94.94 94.94 0 0 0-4.158 5.324 131.36 131.36 0 0 1-4.063 5.31c-.714.907-1.44 1.847-2.178 2.822a35.784 35.784 0 0 1-2.245 2.685 5.8 5.8 0 0 1-.423.446 9.83 9.83 0 0 0-.73.682c-.223.257-.432.496-.628.717-.168.185-.248.31-.239.373.009.063.065.12.17.17.13.014.278.026.44.035.164.01.309.006.436-.012l.333-.046c.507-.07.948-.277 1.32-.619.405-.347.762-.687 1.07-1.02.851-.861 1.64-1.81 2.37-2.848.755-1.074 1.488-2.08 2.199-3.018a381.392 381.392 0 0 1 4.397-5.696 721.143 721.143 0 0 1 4.499-5.662 66.722 66.722 0 0 1 5.725-1.037c2.058-.318 3.963-.566 5.717-.745-.26.456-.664 1.27-1.212 2.445-.52 1.138-1.11 2.479-1.768 4.023-.626 1.54-1.269 3.196-1.928 4.966a141.523 141.523 0 0 0-1.806 5.143 48.606 48.606 0 0 0-1.22 4.48c-.295 1.365-.39 2.428-.284 3.188.031.222.085.489.16.801.112.34.238.661.377.965.171.3.367.546.589.742.22.195.49.27.807.227.19-.027.334-.16.43-.399.326-1.143.786-2.483 1.38-4.018a109.75 109.75 0 0 1 1.975-4.634 108.24 108.24 0 0 1 2.24-4.815c.758-1.526 1.426-2.765 2.005-3.717-.009-.064-.05-.123-.122-.177-.045-.09-.083-.134-.115-.13a14.694 14.694 0 0 0-2.142 2.38 22.72 22.72 0 0 0-1.614 2.695l-.143.02a192.461 192.461 0 0 0 2.385-7.258 56.93 56.93 0 0 1 2.69-7.154l1.585-.123a13.58 13.58 0 0 1 1.583-.123l-.595-.79-2.27.073a133.362 133.362 0 0 1 2.24-4.476 188.142 188.142 0 0 1 2.34-4.442c.105-.176.298-.526.581-1.05.315-.527.668-1.125 1.06-1.793.42-.704.85-1.442 1.293-2.214.442-.772.86-1.492 1.251-2.16.392-.668.718-1.23.978-1.685.256-.488.393-.781.411-.88.083-.335.136-.65.16-.943a4.424 4.424 0 0 0-.037-.964zm-3.852 3.344c-.155.28-.451.822-.889 1.625a273.3 273.3 0 0 0-1.458 2.77 544.54 544.54 0 0 0-1.847 3.453 213.108 213.108 0 0 0-1.869 3.65 950.844 950.844 0 0 0-1.718 3.338 118.67 118.67 0 0 0-1.199 2.54 130.81 130.81 0 0 0-5.166.523c-1.753.18-3.455.383-5.105.612.337-.37.985-1.057 1.944-2.062l3.384-3.57c1.3-1.343 2.676-2.728 4.127-4.157a275.985 275.985 0 0 1 4.187-4.068 94.915 94.915 0 0 1 3.538-3.155c1.01-.883 1.7-1.383 2.071-1.499z"/>
</svg>
