<svg width="14" height="14" viewBox="0 0 14 14" fill="none" xmlns="http://www.w3.org/2000/svg">
<path fill-rule="evenodd" clip-rule="evenodd" d="M3.89062 9.33312H10.1128L7.00174 3.88867L3.89062 9.33312ZM7.36775 8.60719H6.63572V7.88126H7.36775V8.60719ZM7.36775 7.5183H6.63572V6.06645H7.36775V7.5183Z" fill="#EA5A5A"/>
<path d="M7 0C3.1334 0 0 3.13423 0 7C0 10.8662 3.13379 14 7 14C10.8658 14 13.9996 10.8662 13.9996 7C13.9996 3.13467 10.8658 0 7 0ZM7 12.6875C3.85877 12.6875 1.31252 10.1412 1.31252 7C1.31252 3.85877 3.85921 1.31252 7 1.31252C10.1408 1.31252 12.687 3.85877 12.687 7C12.687 10.1412 10.1408 12.6875 7 12.6875Z" fill="#EA5A5A"/>
</svg>
