<svg xmlns="http://www.w3.org/2000/svg" width="30" height="30" fill="none" viewBox="0 0 30 30">
    <mask id="a" width="30" height="30" x="0" y="0" maskUnits="userSpaceOnUse">
        <path fill="#C4C4C4" d="M0 0h30v30H0z"/>
    </mask>
    <g fill="#fff" mask="url(#a)">
        <path d="M25.607 4.394A14.902 14.902 0 0 0 15 0C10.993 0 7.227 1.56 4.394 4.394A14.902 14.902 0 0 0 0 15c0 4.007 1.56 7.774 4.394 10.607A14.902 14.902 0 0 0 15 30c4.007 0 7.774-1.56 10.607-4.393A14.902 14.902 0 0 0 30 15c0-4.007-1.56-7.773-4.393-10.606zm-.663 20.55A13.97 13.97 0 0 1 15 29.062a13.97 13.97 0 0 1-9.943-4.118A13.97 13.97 0 0 1 .937 15a13.97 13.97 0 0 1 4.12-9.943A13.97 13.97 0 0 1 15 .937a13.97 13.97 0 0 1 9.944 4.12A13.97 13.97 0 0 1 29.062 15a13.97 13.97 0 0 1-4.118 9.944z"/>
        <path d="M28.087 16.007a.469.469 0 1 0-.935-.071 12.213 12.213 0 0 1-3.3 7.44 12.108 12.108 0 0 1-8.516 3.807 12.107 12.107 0 0 1-8.713-3.33 12.166 12.166 0 0 1-3.768-7.839.469.469 0 0 0-.935.077 13.102 13.102 0 0 0 4.059 8.442 13.04 13.04 0 0 0 9.383 3.587 13.04 13.04 0 0 0 9.171-4.099 13.154 13.154 0 0 0 3.554-8.014zM6.148 6.623c4.619-4.881 12.348-5.094 17.229-.475a12.166 12.166 0 0 1 3.768 7.838.469.469 0 1 0 .934-.078 13.101 13.101 0 0 0-4.058-8.441 13.039 13.039 0 0 0-9.383-3.587A13.039 13.039 0 0 0 5.467 5.98a13.154 13.154 0 0 0-3.554 8.014.467.467 0 0 0 .432.503.469.469 0 0 0 .503-.431 12.213 12.213 0 0 1 3.3-7.442z"/>
        <path d="M17.77 14.173l-3.976-2.234a.708.708 0 0 0-.723.012.748.748 0 0 0-.358.646v4.43c0 .266.133.507.356.644a.714.714 0 0 0 .72.017l3.977-2.196a.753.753 0 0 0 .385-.658.753.753 0 0 0-.38-.661zm-4.002 2.297v-3.311l2.972 1.67-2.972 1.64z"/>
        <path d="M22.882 11.832v-.007c-.014-.128-.149-1.262-.706-1.839-.643-.678-1.373-.76-1.724-.8a4.308 4.308 0 0 1-.08-.01l-.027-.003C18.229 9.021 15.035 9 15.003 9h-.006c-.032 0-3.226.021-5.36.173l-.029.003-.075.01c-.346.039-1.068.121-1.714.825-.53.57-.684 1.68-.7 1.805l-.001.016A32.59 32.59 0 0 0 7 14.417v1.185c0 1.268.113 2.532.118 2.585v.008c.014.125.149 1.239.703 1.816.606.656 1.37.743 1.782.79.065.007.121.013.16.02l.037.005c1.221.115 5.05.172 5.212.174h.01c.032 0 3.227-.021 5.342-.173l.028-.003.09-.01c.344-.037 1.063-.112 1.7-.805.53-.571.683-1.681.699-1.806l.001-.016A32.54 32.54 0 0 0 23 15.602v-1.185c0-1.268-.113-2.532-.118-2.585zm-.82 3.77a32.17 32.17 0 0 1-.113 2.494c-.04.306-.201 1.008-.46 1.286-.398.434-.808.477-1.106.508l-.1.012c-2.046.146-5.12.169-5.262.17-.158-.003-3.932-.06-5.116-.169a4.225 4.225 0 0 0-.195-.025c-.35-.04-.83-.094-1.199-.496l-.009-.01c-.254-.261-.41-.918-.45-1.272a32.126 32.126 0 0 1-.114-2.498v-1.185c0-1.173.103-2.38.113-2.493.048-.36.212-1.02.46-1.287.41-.447.844-.497 1.13-.53l.076-.009c2.076-.147 5.172-.169 5.283-.17.111.001 3.206.023 5.263.17l.083.01c.294.033.74.084 1.148.515l.004.004c.254.262.41.93.45 1.292.008.08.114 1.305.114 2.498v1.185z"/>
    </g>
</svg>
